<svg width="1200" height="800" xmlns="http://www.w3.org/2000/svg">
  <!-- User Entity -->
  <rect x="50" y="50" width="200" height="300" fill="#e1f5fe" stroke="#01579b" stroke-width="2"/>
  <text x="150" y="70" text-anchor="middle" font-weight="bold" font-size="14">USER</text>
  <line x1="50" y1="80" x2="250" y2="80" stroke="#01579b" stroke-width="1"/>
  <text x="60" y="100" font-size="12">🔑 id (UUID, PK)</text>
  <text x="60" y="120" font-size="12">username (VARCHAR(30), UNIQUE)</text>
  <text x="60" y="140" font-size="12">fullName (VARCHAR(100))</text>
  <text x="60" y="160" font-size="12">email (VARCHAR, UNIQUE)</text>
  <text x="60" y="180" font-size="12">password (VARCHAR)</text>
  <text x="60" y="200" font-size="12">profilePicture (TEXT)</text>
  <text x="60" y="220" font-size="12">coverImage (TEXT)</text>
  <text x="60" y="240" font-size="12">bio (VARCHAR(100))</text>
  <text x="60" y="260" font-size="12">isDpVerify (BOOLEAN)</text>
  <text x="60" y="280" font-size="12">location (VARCHAR(100))</text>
  <text x="60" y="300" font-size="12">dob (DATE)</text>
  <text x="60" y="320" font-size="12">website (VARCHAR(255))</text>
  <text x="60" y="340" font-size="12">role (ENUM: user, admin)</text>

  <!-- Post Entity -->
  <rect x="400" y="50" width="200" height="220" fill="#f3e5f5" stroke="#4a148c" stroke-width="2"/>
  <text x="500" y="70" text-anchor="middle" font-weight="bold" font-size="14">POST</text>
  <line x1="400" y1="80" x2="600" y2="80" stroke="#4a148c" stroke-width="1"/>
  <text x="410" y="100" font-size="12">🔑 id (UUID, PK)</text>
  <text x="410" y="120" font-size="12">🔗 userId (UUID, FK)</text>
  <text x="410" y="140" font-size="12">content (VARCHAR(100))</text>
  <text x="410" y="160" font-size="12">feeling (VARCHAR(50))</text>
  <text x="410" y="180" font-size="12">image (TEXT)</text>
  <text x="410" y="200" font-size="12">backgroundColor (VARCHAR)</text>
  <text x="410" y="220" font-size="12">pollOptions (JSON)</text>
  <text x="410" y="240" font-size="12">pollEndDate (DATE)</text>
  <text x="410" y="260" font-size="12">pollActive (BOOLEAN)</text>

  <!-- Comment Entity -->
  <rect x="750" y="50" width="200" height="140" fill="#e8f5e8" stroke="#1b5e20" stroke-width="2"/>
  <text x="850" y="70" text-anchor="middle" font-weight="bold" font-size="14">COMMENT</text>
  <line x1="750" y1="80" x2="950" y2="80" stroke="#1b5e20" stroke-width="1"/>
  <text x="760" y="100" font-size="12">🔑 id (UUID, PK)</text>
  <text x="760" y="120" font-size="12">🔗 postId (UUID, FK)</text>
  <text x="760" y="140" font-size="12">🔗 userId (UUID, FK)</text>
  <text x="760" y="160" font-size="12">content (VARCHAR(100))</text>
  <text x="760" y="180" font-size="12">createdAt (TIMESTAMP)</text>

  <!-- PostLike Entity -->
  <rect x="400" y="320" width="200" height="100" fill="#fff3e0" stroke="#e65100" stroke-width="2"/>
  <text x="500" y="340" text-anchor="middle" font-weight="bold" font-size="14">POST_LIKE</text>
  <line x1="400" y1="350" x2="600" y2="350" stroke="#e65100" stroke-width="1"/>
  <text x="410" y="370" font-size="12">🔑 id (UUID, PK)</text>
  <text x="410" y="390" font-size="12">🔗 userId (UUID, FK)</text>
  <text x="410" y="410" font-size="12">🔗 postId (UUID, FK)</text>

  <!-- CommentLike Entity -->
  <rect x="750" y="250" width="200" height="100" fill="#fce4ec" stroke="#880e4f" stroke-width="2"/>
  <text x="850" y="270" text-anchor="middle" font-weight="bold" font-size="14">COMMENT_LIKE</text>
  <line x1="750" y1="280" x2="950" y2="280" stroke="#880e4f" stroke-width="1"/>
  <text x="760" y="300" font-size="12">🔑 id (UUID, PK)</text>
  <text x="760" y="320" font-size="12">🔗 userId (UUID, FK)</text>
  <text x="760" y="340" font-size="12">🔗 commentId (UUID, FK)</text>

  <!-- FriendRequest Entity -->
  <rect x="50" y="400" width="200" height="100" fill="#e0f2f1" stroke="#004d40" stroke-width="2"/>
  <text x="150" y="420" text-anchor="middle" font-weight="bold" font-size="14">FRIEND_REQUEST</text>
  <line x1="50" y1="430" x2="250" y2="430" stroke="#004d40" stroke-width="1"/>
  <text x="60" y="450" font-size="12">🔑 id (UUID, PK)</text>
  <text x="60" y="470" font-size="12">🔗 senderId (UUID, FK)</text>
  <text x="60" y="490" font-size="12">🔗 receiverId (UUID, FK)</text>

  <!-- UserFriend Entity -->
  <rect x="50" y="550" width="200" height="100" fill="#f1f8e9" stroke="#33691e" stroke-width="2"/>
  <text x="150" y="570" text-anchor="middle" font-weight="bold" font-size="14">USER_FRIEND</text>
  <line x1="50" y1="580" x2="250" y2="580" stroke="#33691e" stroke-width="1"/>
  <text x="60" y="600" font-size="12">🔑 id (UUID, PK)</text>
  <text x="60" y="620" font-size="12">🔗 userId (UUID, FK)</text>
  <text x="60" y="640" font-size="12">🔗 friendId (UUID, FK)</text>

  <!-- UserFollow Entity -->
  <rect x="400" y="480" width="200" height="100" fill="#e8eaf6" stroke="#1a237e" stroke-width="2"/>
  <text x="500" y="500" text-anchor="middle" font-weight="bold" font-size="14">USER_FOLLOW</text>
  <line x1="400" y1="510" x2="600" y2="510" stroke="#1a237e" stroke-width="1"/>
  <text x="410" y="530" font-size="12">🔑 id (UUID, PK)</text>
  <text x="410" y="550" font-size="12">🔗 followerId (UUID, FK)</text>
  <text x="410" y="570" font-size="12">🔗 followingId (UUID, FK)</text>

  <!-- SavedItem Entity -->
  <rect x="750" y="400" width="200" height="100" fill="#fff8e1" stroke="#ff6f00" stroke-width="2"/>
  <text x="850" y="420" text-anchor="middle" font-weight="bold" font-size="14">SAVED_ITEM</text>
  <line x1="750" y1="430" x2="950" y2="430" stroke="#ff6f00" stroke-width="1"/>
  <text x="760" y="450" font-size="12">🔑 id (UUID, PK)</text>
  <text x="760" y="470" font-size="12">🔗 userId (UUID, FK)</text>
  <text x="760" y="490" font-size="12">🔗 postId (UUID, FK)</text>

  <!-- Relationships -->
  <!-- User to Post (1:N) -->
  <line x1="250" y1="150" x2="400" y2="150" stroke="#333" stroke-width="2" marker-end="url(#arrowhead)"/>
  <text x="320" y="140" font-size="10" fill="#666">1:N creates</text>

  <!-- User to Comment (1:N) -->
  <line x1="250" y1="200" x2="750" y2="120" stroke="#333" stroke-width="2" marker-end="url(#arrowhead)"/>
  <text x="450" y="150" font-size="10" fill="#666">1:N writes</text>

  <!-- Post to Comment (1:N) -->
  <line x1="600" y1="120" x2="750" y2="120" stroke="#333" stroke-width="2" marker-end="url(#arrowhead)"/>
  <text x="670" y="110" font-size="10" fill="#666">1:N has</text>

  <!-- User to PostLike (1:N) -->
  <line x1="250" y1="300" x2="400" y2="370" stroke="#333" stroke-width="2" marker-end="url(#arrowhead)"/>
  <text x="320" y="340" font-size="10" fill="#666">1:N likes</text>

  <!-- Post to PostLike (1:N) -->
  <line x1="500" y1="270" x2="500" y2="320" stroke="#333" stroke-width="2" marker-end="url(#arrowhead)"/>
  <text x="510" y="295" font-size="10" fill="#666">1:N</text>

  <!-- User to CommentLike (1:N) -->
  <line x1="250" y1="250" x2="750" y2="300" stroke="#333" stroke-width="2" marker-end="url(#arrowhead)"/>
  <text x="450" y="270" font-size="10" fill="#666">1:N likes</text>

  <!-- Comment to CommentLike (1:N) -->
  <line x1="850" y1="190" x2="850" y2="250" stroke="#333" stroke-width="2" marker-end="url(#arrowhead)"/>
  <text x="860" y="220" font-size="10" fill="#666">1:N</text>

  <!-- User to FriendRequest (1:N) -->
  <line x1="150" y1="350" x2="150" y2="400" stroke="#333" stroke-width="2" marker-end="url(#arrowhead)"/>
  <text x="160" y="375" font-size="10" fill="#666">1:N sends/receives</text>

  <!-- User to UserFriend (1:N) -->
  <line x1="150" y1="350" x2="150" y2="550" stroke="#333" stroke-width="2" marker-end="url(#arrowhead)"/>
  <text x="160" y="450" font-size="10" fill="#666">1:N friends</text>

  <!-- User to UserFollow (1:N) -->
  <line x1="250" y1="350" x2="400" y2="530" stroke="#333" stroke-width="2" marker-end="url(#arrowhead)"/>
  <text x="320" y="440" font-size="10" fill="#666">1:N follows</text>

  <!-- User to SavedItem (1:N) -->
  <line x1="250" y1="250" x2="750" y2="450" stroke="#333" stroke-width="2" marker-end="url(#arrowhead)"/>
  <text x="450" y="350" font-size="10" fill="#666">1:N saves</text>

  <!-- Post to SavedItem (1:N) -->
  <line x1="600" y1="250" x2="750" y2="450" stroke="#333" stroke-width="2" marker-end="url(#arrowhead)"/>
  <text x="670" y="350" font-size="10" fill="#666">1:N saved by</text>

  <!-- Arrow marker definition -->
  <defs>
    <marker id="arrowhead" markerWidth="10" markerHeight="7" refX="9" refY="3.5" orient="auto">
      <polygon points="0 0, 10 3.5, 0 7" fill="#333"/>
    </marker>
  </defs>

  <!-- Legend -->
  <rect x="50" y="700" width="300" height="80" fill="#f5f5f5" stroke="#ccc" stroke-width="1"/>
  <text x="60" y="720" font-weight="bold" font-size="12">Legend:</text>
  <text x="60" y="740" font-size="10">🔑 Primary Key</text>
  <text x="60" y="755" font-size="10">🔗 Foreign Key</text>
  <text x="60" y="770" font-size="10">1:N One-to-Many Relationship</text>
</svg>
