<svg width="1000" height="700" xmlns="http://www.w3.org/2000/svg">
  <!-- System Boundary -->
  <rect x="200" y="50" width="600" height="600" fill="none" stroke="#333" stroke-width="2" stroke-dasharray="5,5"/>
  <text x="480" y="40" text-anchor="middle" font-weight="bold" font-size="16">Social Media Application</text>

  <!-- Actors -->
  <!-- Regular User -->
  <ellipse cx="100" cy="200" rx="40" ry="60" fill="#e3f2fd" stroke="#1976d2" stroke-width="2"/>
  <circle cx="100" cy="180" r="15" fill="#1976d2"/>
  <line x1="100" y1="195" x2="100" y2="230" stroke="#1976d2" stroke-width="3"/>
  <line x1="85" y1="210" x2="115" y2="210" stroke="#1976d2" stroke-width="3"/>
  <line x1="100" y1="230" x2="85" y2="250" stroke="#1976d2" stroke-width="3"/>
  <line x1="100" y1="230" x2="115" y2="250" stroke="#1976d2" stroke-width="3"/>
  <text x="100" y="280" text-anchor="middle" font-weight="bold" font-size="12">User</text>

  <!-- Admin User -->
  <ellipse cx="100" cy="450" rx="40" ry="60" fill="#ffebee" stroke="#d32f2f" stroke-width="2"/>
  <circle cx="100" cy="430" r="15" fill="#d32f2f"/>
  <line x1="100" y1="445" x2="100" y2="480" stroke="#d32f2f" stroke-width="3"/>
  <line x1="85" y1="460" x2="115" y2="460" stroke="#d32f2f" stroke-width="3"/>
  <line x1="100" y1="480" x2="85" y2="500" stroke="#d32f2f" stroke-width="3"/>
  <line x1="100" y1="480" x2="115" y2="500" stroke="#d32f2f" stroke-width="3"/>
  <text x="100" y="530" text-anchor="middle" font-weight="bold" font-size="12">Admin</text>

  <!-- Use Cases -->
  <!-- Authentication -->
  <ellipse cx="300" cy="100" rx="60" ry="25" fill="#f3e5f5" stroke="#7b1fa2" stroke-width="1"/>
  <text x="300" y="105" text-anchor="middle" font-size="10">Register/Login</text>

  <!-- Profile Management -->
  <ellipse cx="450" cy="100" rx="60" ry="25" fill="#e8f5e8" stroke="#388e3c" stroke-width="1"/>
  <text x="450" y="105" text-anchor="middle" font-size="10">Manage Profile</text>

  <!-- Post Management -->
  <ellipse cx="300" cy="180" rx="60" ry="25" fill="#fff3e0" stroke="#f57c00" stroke-width="1"/>
  <text x="300" y="185" text-anchor="middle" font-size="10">Create Post</text>

  <ellipse cx="450" cy="180" rx="60" ry="25" fill="#fff3e0" stroke="#f57c00" stroke-width="1"/>
  <text x="450" y="185" text-anchor="middle" font-size="10">Edit/Delete Post</text>

  <ellipse cx="600" cy="180" rx="60" ry="25" fill="#fff3e0" stroke="#f57c00" stroke-width="1"/>
  <text x="600" y="185" text-anchor="middle" font-size="10">Like Post</text>

  <!-- Comment Management -->
  <ellipse cx="300" cy="260" rx="60" ry="25" fill="#e1f5fe" stroke="#0277bd" stroke-width="1"/>
  <text x="300" y="265" text-anchor="middle" font-size="10">Add Comment</text>

  <ellipse cx="450" cy="260" rx="60" ry="25" fill="#e1f5fe" stroke="#0277bd" stroke-width="1"/>
  <text x="450" y="265" text-anchor="middle" font-size="10">Edit/Delete Comment</text>

  <ellipse cx="600" cy="260" rx="60" ry="25" fill="#e1f5fe" stroke="#0277bd" stroke-width="1"/>
  <text x="600" y="265" text-anchor="middle" font-size="10">Like Comment</text>

  <!-- Friend Management -->
  <ellipse cx="300" cy="340" rx="60" ry="25" fill="#e8f5e8" stroke="#388e3c" stroke-width="1"/>
  <text x="300" y="345" text-anchor="middle" font-size="10">Send Friend Request</text>

  <ellipse cx="450" cy="340" rx="60" ry="25" fill="#e8f5e8" stroke="#388e3c" stroke-width="1"/>
  <text x="450" y="345" text-anchor="middle" font-size="10">Accept/Reject Request</text>

  <ellipse cx="600" cy="340" rx="60" ry="25" fill="#e8f5e8" stroke="#388e3c" stroke-width="1"/>
  <text x="600" y="345" text-anchor="middle" font-size="10">View Friends List</text>

  <!-- Follow System -->
  <ellipse cx="300" cy="420" rx="60" ry="25" fill="#fce4ec" stroke="#c2185b" stroke-width="1"/>
  <text x="300" y="425" text-anchor="middle" font-size="10">Follow User</text>

  <ellipse cx="450" cy="420" rx="60" ry="25" fill="#fce4ec" stroke="#c2185b" stroke-width="1"/>
  <text x="450" y="425" text-anchor="middle" font-size="10">Unfollow User</text>

  <!-- Save Posts -->
  <ellipse cx="600" cy="420" rx="60" ry="25" fill="#fff8e1" stroke="#ffa000" stroke-width="1"/>
  <text x="600" y="425" text-anchor="middle" font-size="10">Save/Unsave Post</text>

  <!-- Admin Use Cases -->
  <ellipse cx="350" cy="520" rx="70" ry="25" fill="#ffebee" stroke="#d32f2f" stroke-width="1"/>
  <text x="350" y="525" text-anchor="middle" font-size="10">Manage Users</text>

  <ellipse cx="500" cy="520" rx="70" ry="25" fill="#ffebee" stroke="#d32f2f" stroke-width="1"/>
  <text x="500" y="525" text-anchor="middle" font-size="10">Moderate Content</text>

  <ellipse cx="650" cy="520" rx="70" ry="25" fill="#ffebee" stroke="#d32f2f" stroke-width="1"/>
  <text x="650" y="525" text-anchor="middle" font-size="10">View Dashboard</text>

  <!-- User Connections -->
  <line x1="140" y1="150" x2="240" y2="100" stroke="#333" stroke-width="1"/>
  <line x1="140" y1="160" x2="390" y2="100" stroke="#333" stroke-width="1"/>
  <line x1="140" y1="180" x2="240" y2="180" stroke="#333" stroke-width="1"/>
  <line x1="140" y1="190" x2="390" y2="180" stroke="#333" stroke-width="1"/>
  <line x1="140" y1="200" x2="540" y2="180" stroke="#333" stroke-width="1"/>
  <line x1="140" y1="220" x2="240" y2="260" stroke="#333" stroke-width="1"/>
  <line x1="140" y1="230" x2="390" y2="260" stroke="#333" stroke-width="1"/>
  <line x1="140" y1="240" x2="540" y2="260" stroke="#333" stroke-width="1"/>
  <line x1="140" y1="280" x2="240" y2="340" stroke="#333" stroke-width="1"/>
  <line x1="140" y1="290" x2="390" y2="340" stroke="#333" stroke-width="1"/>
  <line x1="140" y1="300" x2="540" y2="340" stroke="#333" stroke-width="1"/>
  <line x1="140" y1="320" x2="240" y2="420" stroke="#333" stroke-width="1"/>
  <line x1="140" y1="330" x2="390" y2="420" stroke="#333" stroke-width="1"/>
  <line x1="140" y1="340" x2="540" y2="420" stroke="#333" stroke-width="1"/>

  <!-- Admin Connections -->
  <line x1="140" y1="450" x2="280" y2="520" stroke="#d32f2f" stroke-width="2"/>
  <line x1="140" y1="460" x2="430" y2="520" stroke="#d32f2f" stroke-width="2"/>
  <line x1="140" y1="470" x2="580" y2="520" stroke="#d32f2f" stroke-width="2"/>
</svg>
